<?xml version="1.0" standalone="no"?>
<!DOCTYPE svg PUBLIC "-//W3C//DTD SVG 20010904//EN"
 "http://www.w3.org/TR/2001/REC-SVG-20010904/DTD/svg10.dtd">
<svg version="1.0" xmlns="http://www.w3.org/2000/svg"
 width="225.000000pt" height="225.000000pt" viewBox="0 0 225.000000 225.000000"
 preserveAspectRatio="xMidYMid meet">
<metadata>
Created by potrace 1.16, written by Peter Selinger 2001-2019
</metadata>
<g transform="translate(0.000000,225.000000) scale(0.100000,-0.100000)"
fill="#000000" stroke="none">
<path d="M1775 2088 c-54 -30 -116 -113 -150 -201 -20 -53 -65 -97 -98 -97
-24 0 -62 -21 -128 -72 -47 -35 -71 -48 -241 -128 -159 -76 -200 -79 -368 -30
-118 35 -144 40 -215 40 -127 0 -151 -36 -90 -130 19 -30 38 -63 41 -75 4 -11
25 -44 48 -74 23 -29 47 -63 55 -75 8 -11 22 -33 32 -48 11 -15 19 -33 19 -41
0 -7 22 -36 50 -65 39 -40 51 -61 56 -94 3 -24 12 -61 19 -83 7 -22 13 -59 13
-82 1 -57 53 -164 92 -186 16 -10 38 -32 49 -50 11 -18 39 -47 63 -63 38 -27
65 -40 157 -76 14 -5 52 -31 85 -57 102 -80 208 -131 285 -137 36 -3 84 -7
106 -9 24 -2 72 7 122 22 l83 26 38 -35 c21 -19 67 -54 100 -77 l62 -42 0 788
0 788 -30 88 c-27 81 -99 210 -149 265 -22 24 -72 29 -106 10z m129 -1020 c27
-39 20 -93 -17 -134 -28 -31 -39 -36 -80 -36 -36 -1 -53 4 -72 22 -30 28 -31
54 -5 98 21 35 50 43 50 14 0 -24 28 -62 46 -62 19 0 18 40 -2 68 -23 33 -11
52 30 52 25 0 39 -7 50 -22z m-701 -220 c-5 -28 33 -92 48 -82 15 9 3 63 -18
86 -15 17 -14 18 16 18 36 0 85 -30 101 -61 8 -14 7 -28 -5 -53 -22 -46 -81
-71 -134 -56 -63 17 -110 85 -91 134 10 27 23 34 61 35 22 1 26 -3 22 -21z"/>
</g>
</svg>
