<svg xmlns="http://www.w3.org/2000/svg" viewBox="0 0 64 64" role="img" aria-labelledby="title desc">
  <title id="title">CV cat favicon</title>
  <desc id="desc">Blue square with a white cat silhouette and CV lettering.</desc>
  <rect width="64" height="64" rx="10" fill="#1f4da3"/>
  <path
    fill="#f7fbff"
    d="M18 44c0 7 5.7 12 14 12s14-5 14-12V31.5l4 2c.6.3 1.3 0 1.5-.7l1.5-4.6c.2-.7-.1-1.5-.8-1.8l-5.3-2.6-1-6.3C45 12.2 40.3 8 34.8 8 30 8 25.7 10.5 23.2 14.3l-2.2 3.4-5.2 1.8c-2.5.9-4.1 3.2-4.1 5.9v2.9c0 1.6 1.4 2.9 3 2.7l3.3-.4V44zm28.5 4.3c-1.8 1-3.9 1.5-6.5 1.5-6.6 0-11-3.7-11-9.8 0-5.4 3.7-9.7 9-11.6l-1.8 9.4c-.2 1 1 1.7 1.8 1l7.6-6.2 1 15.7c.1.8-.4 1.6-1.1 2z"/>
  <text x="32" y="56" font-family="'Segoe UI', Arial, sans-serif" font-weight="700" font-size="16" text-anchor="middle" fill="#9cc4ff">CV</text>
</svg>
